<svg id="Group_2033" data-name="Group 2033" xmlns="http://www.w3.org/2000/svg" xmlns:xlink="http://www.w3.org/1999/xlink" width="261.385" height="348.22" viewBox="0 0 261.385 348.22">
  <defs>
    <clipPath id="clip-path">
      <rect id="Rectangle_194" data-name="Rectangle 194" width="261.385" height="348.22" fill="none"/>
    </clipPath>
  </defs>
  <g id="Group_2032" data-name="Group 2032" transform="translate(0 0)" clip-path="url(#clip-path)">
    <path id="Path_1841" data-name="Path 1841" d="M130.811,228.671a9.853,9.853,0,0,1-5.279-1.526L4.567,150.186a9.848,9.848,0,0,1-3.6-12.571L47.318,41.071l7.457,3.581L8.43,141.2A1.571,1.571,0,0,0,9,143.2L129.966,220.16a1.574,1.574,0,0,0,1.69,0l120.715-76.877a1.569,1.569,0,0,0,.554-2.047L202.056,42.33l7.358-3.786,50.868,98.911a9.8,9.8,0,0,1-3.47,12.805l-120.7,76.873a9.863,9.863,0,0,1-5.3,1.538" transform="translate(-0.002 119.548)" fill="#040506"/>
    <path id="Path_1842" data-name="Path 1842" d="M101.3,138.338l-7.9-100.986,8.248-.648L109.548,137.7Zm-72.361-1.661-8.22-.939L31.74,39.19l8.22.935Z" transform="translate(64.275 113.841)" fill="#040506"/>
    <path id="Path_1843" data-name="Path 1843" d="M63.263,100.307l-2.42-27.44a12.15,12.15,0,0,0-24.208,0l-2.42,27.44-8.244-.73,2.42-27.44a20.427,20.427,0,0,1,40.7,0l2.42,27.44Z" transform="translate(80.553 165.945)" fill="#040506"/>
    <path id="Path_1844" data-name="Path 1844" d="M70.561,101.975,11.522,57.718,18.672,0,96.43,75.183l-5.755,5.947L24.845,17.473l-4.52,36.5,55.2,41.381Z" transform="translate(35.738 -0.001)" fill="#040506"/>
    <path id="Path_1845" data-name="Path 1845" d="M59.892,86.082l-5.779-5.919,64-62.492-36.386-4.5L36.787,65.229,30.52,59.823,78.353,4.41l57.841,7.166Z" transform="translate(94.662 13.677)" fill="#040506"/>
    <path id="Path_1846" data-name="Path 1846" d="M110.055,129.4,30.812,50.845l5.824-5.874,67.279,66.7,4.524-36.529L53.428,28.7l5.336-6.321L117.2,71.71Z" transform="translate(95.567 69.4)" fill="#040506"/>
    <path id="Path_1847" data-name="Path 1847" d="M65.034,105.667,7.073,98.489,85.833,22.42l5.746,5.951-66.3,64.039L61.535,96.9l42.624-51.754,6.386,5.258Z" transform="translate(21.939 69.538)" fill="#040506"/>
    <path id="Path_1848" data-name="Path 1848" d="M50.048,66.2a24.272,24.272,0,1,1,11.46-2.908A24.286,24.286,0,0,1,50.048,66.2M50.023,25.97a15.97,15.97,0,1,0,4.582.673,16,16,0,0,0-4.582-.673" transform="translate(79.908 54.867)" fill="#040506"/>
    <path id="Path_1849" data-name="Path 1849" d="M123.767,106.467a79.6,79.6,0,0,0-68.69-39.65A78.447,78.447,0,0,0,5.824,83.966L.685,77.493A86.638,86.638,0,0,1,55.077,58.548a87.887,87.887,0,0,1,75.843,43.777Z" transform="translate(2.125 181.593)" fill="#040506"/>
    <path id="Path_1850" data-name="Path 1850" d="M100.094,117.814A59.445,59.445,0,0,0,42.462,71.749,58.8,58.8,0,0,0,9.387,81.864L4.752,75.022A67,67,0,0,1,42.462,63.48a67.775,67.775,0,0,1,65.7,52.526Z" transform="translate(14.739 196.89)" fill="#040506"/>
    <path id="Path_1851" data-name="Path 1851" d="M73.628,115.518H65.359a38.864,38.864,0,0,0-52.55-36.353l-2.916-7.74a47.147,47.147,0,0,1,63.735,44.093" transform="translate(30.684 212.184)" fill="#040506"/>
    <path id="Path_1852" data-name="Path 1852" d="M28.08,155.319c-.234-2.637-.349-5.307-.349-7.945a88.822,88.822,0,0,1,145.825-68.12l-5.307,6.337A80.559,80.559,0,0,0,36,147.374c0,2.391.107,4.823.32,7.215Z" transform="translate(86.011 181.596)" fill="#040506"/>
    <path id="Path_1853" data-name="Path 1853" d="M33.5,142.833a68.643,68.643,0,0,1,67.759-79.354,68.229,68.229,0,0,1,38.929,12.108l-4.7,6.8A60.34,60.34,0,0,0,40.93,132.079a61.478,61.478,0,0,0,.738,9.475Z" transform="translate(101.302 196.887)" fill="#040506"/>
    <path id="Path_1854" data-name="Path 1854" d="M45.861,116.785H37.592A48.4,48.4,0,0,1,105.6,72.561l-3.359,7.555a40.128,40.128,0,0,0-56.377,36.669" transform="translate(116.597 212.181)" fill="#040506"/>
  </g>
</svg>
