<svg xmlns="http://www.w3.org/2000/svg" width="237.181" height="35.446" viewBox="0 0 237.181 35.446">
  <g id="Group_1989" data-name="Group 1989" transform="translate(1)">
    <g id="eg-logo" transform="translate(85.579)">
      <path id="Path_28" data-name="Path 28" d="M48.922,45.641l5.606-9.379,5.6,9.381-5.6,3.41-5.606-3.411Z" transform="translate(-37.885 -28.081)" fill="#1e294f" fill-rule="evenodd"/>
      <path id="Path_29" data-name="Path 29" d="M48.922,84.978l5.606,3.411,5.6-3.411-5.6,8.1Z" transform="translate(-37.885 -65.806)" fill="#1e294f" fill-rule="evenodd"/>
      <path id="Path_30" data-name="Path 30" d="M67.554,13.785a25.974,25.974,0,0,0-2.538,1.448,24.36,24.36,0,0,0-2.561-1.454A29.251,29.251,0,0,1,65,12.142Q66.281,12.877,67.554,13.785Z" transform="translate(-48.365 -9.403)" fill="#5f9a34" fill-rule="evenodd"/>
      <path id="Path_31" data-name="Path 31" d="M88.249,2.262c-3.076-3.275-8.684-2.884-14.525.47a30.124,30.124,0,0,1,2.557,1.644,14.649,14.649,0,0,1,6.241-1.712,5.219,5.219,0,0,1,3.95,1.487c2.014,2.146,1.774,6.3-.208,10.857q.833,1.321,1.544,2.724c3.15-6.222,3.517-12.193.441-15.47Z" transform="translate(-57.091 0)" fill="#ffc750" fill-rule="evenodd"/>
      <path id="Path_32" data-name="Path 32" d="M76.356,19.366a25.97,25.97,0,0,0-2.538,1.448,35.518,35.518,0,0,1,11.156,11.9A29.178,29.178,0,0,0,86.339,30a38.758,38.758,0,0,0-4.517-5.821,37.064,37.064,0,0,0-5.467-4.811Z" transform="translate(-57.164 -14.996)" fill="#ffc750" fill-rule="evenodd"/>
      <path id="Path_33" data-name="Path 33" d="M126.173,69.233q-.708,1.4-1.541,2.712a28.763,28.763,0,0,0-1.366-2.722,29.247,29.247,0,0,0,1.365-2.714Q125.463,67.831,126.173,69.233Z" transform="translate(-95.456 -51.505)" fill="#ff512f" fill-rule="evenodd"/>
      <path id="Path_34" data-name="Path 34" d="M86.328,81.3a28.831,28.831,0,0,0-1.367-2.722,35.193,35.193,0,0,1-4.929,6.645A33.656,33.656,0,0,1,73.8,90.475a25.118,25.118,0,0,0,2.539,1.447,37.054,37.054,0,0,0,5.467-4.811A38.65,38.65,0,0,0,86.328,81.3Z" transform="translate(-57.153 -60.849)" fill="#ff6895" fill-rule="evenodd"/>
      <path id="Path_35" data-name="Path 35" d="M89.609,83.088a26.786,26.786,0,0,0-1.8-4.487q-.707,1.4-1.54,2.712c1.98,4.559,2.219,8.7.206,10.848s-5.91,1.887-10.191-.224a29.131,29.131,0,0,1-2.558,1.644,18.227,18.227,0,0,0,8.785,2.733,7.6,7.6,0,0,0,5.741-2.262C90.5,91.656,90.982,87.763,89.609,83.088Z" transform="translate(-57.091 -60.869)" fill="#ff6895" fill-rule="evenodd"/>
      <path id="Path_36" data-name="Path 36" d="M67.554,132.8A29.127,29.127,0,0,1,65,134.44a29.786,29.786,0,0,1-2.541-1.637,24.363,24.363,0,0,0,2.56-1.454A25.123,25.123,0,0,0,67.554,132.8Z" transform="translate(-48.365 -101.716)" fill="#552990" fill-rule="evenodd"/>
      <path id="Path_37" data-name="Path 37" d="M11.669,92.944c-3.452,1.152-6.212.873-7.768-.785s-1.819-4.6-.738-8.273a22.582,22.582,0,0,1,.94-2.579Q3.273,80,2.566,78.6a26.77,26.77,0,0,0-1.8,4.485c-1.375,4.675-.892,8.567,1.357,10.965a7.562,7.562,0,0,0,5.72,2.263,14.53,14.53,0,0,0,4.574-.818,23.551,23.551,0,0,0,4.215-1.917,29.853,29.853,0,0,1-2.541-1.637,19.39,19.39,0,0,1-2.424,1Z" transform="translate(0 -60.869)" fill="#5666f6" fill-rule="evenodd"/>
      <path id="Path_38" data-name="Path 38" d="M28.168,91.865a24.354,24.354,0,0,0,2.56-1.453,33.614,33.614,0,0,1-6.249-5.254A35.11,35.11,0,0,1,19.546,78.5a27.558,27.558,0,0,0-1.367,2.729A38.735,38.735,0,0,0,22.7,87.048,37.025,37.025,0,0,0,28.168,91.865Z" transform="translate(-14.077 -60.791)" fill="#5666f6" fill-rule="evenodd"/>
      <path id="Path_39" data-name="Path 39" d="M14.269,69.213A27.579,27.579,0,0,0,12.9,71.942q-.83-1.312-1.537-2.706.709-1.4,1.546-2.726a27.475,27.475,0,0,0,1.359,2.7Z" transform="translate(-8.801 -51.505)" fill="#204fa0" fill-rule="evenodd"/>
      <path id="Path_40" data-name="Path 40" d="M3.914,4.153C5.471,2.5,8.23,2.217,11.683,3.371a19.8,19.8,0,0,1,2.424,1,29.245,29.245,0,0,1,2.541-1.638A23.393,23.393,0,0,0,12.432.816C8.045-.646,4.39-.133,2.138,2.265A8.685,8.685,0,0,0,.015,8.378,21.339,21.339,0,0,0,2.58,17.736q.709-1.4,1.546-2.726C2.142,10.45,1.9,6.3,3.914,4.153Z" transform="translate(-0.012 0)" fill="#5fc5a6" fill-rule="evenodd"/>
      <path id="Path_41" data-name="Path 41" d="M28.212,19.365a38.956,38.956,0,0,0-9.981,10.641,27.478,27.478,0,0,0,1.359,2.7A35.472,35.472,0,0,1,30.772,20.82,24.363,24.363,0,0,0,28.212,19.365Z" transform="translate(-14.118 -14.996)" fill="#5fc5a6" fill-rule="evenodd"/>
      <path id="Path_42" data-name="Path 42" d="M289.088,55.44v1.481a1.479,1.479,0,0,1-.8.228,2.378,2.378,0,0,1-1.548-.529,2.653,2.653,0,0,1-.907-1.437,5.431,5.431,0,0,1-3.157,1.836,5.226,5.226,0,0,1-3.548-.627,5.786,5.786,0,0,1-2.437-2.827,6.266,6.266,0,0,1-.292-3.825,5.933,5.933,0,0,1,1.971-3.207,5.316,5.316,0,0,1,3.407-1.236,5.208,5.208,0,0,1,2.108.442,5.489,5.489,0,0,1,1.788,1.268V45.525h1.655v8.434c0,1.054.507,1.482,1.093,1.482Zm-3.415-4.217a4.3,4.3,0,0,0-1.139-2.939,3.722,3.722,0,0,0-5.513,0,4.3,4.3,0,0,0-1.139,2.938,4.386,4.386,0,0,0,.295,1.59,4.178,4.178,0,0,0,.844,1.349,3.894,3.894,0,0,0,1.264.9,3.7,3.7,0,0,0,1.492.319,3.79,3.79,0,0,0,2.756-1.222A4.3,4.3,0,0,0,285.673,51.222Zm5.5-11.483h1.738V57.149h-1.738ZM273.794,51.146a6.027,6.027,0,0,1-3.415,5.54,5.2,5.2,0,0,1-3.208.354,5.409,5.409,0,0,1-2.843-1.621v1.5h-1.658V39.369h1.658v7.5a5.409,5.409,0,0,1,2.843-1.621,5.194,5.194,0,0,1,3.208.354A6.026,6.026,0,0,1,273.794,51.146Zm-1.658,0a3.915,3.915,0,1,0-3.9,4.214,3.661,3.661,0,0,0,1.5-.319A3.864,3.864,0,0,0,271,54.129,4.374,4.374,0,0,0,272.136,51.146Zm-23.716.078a5.752,5.752,0,0,1,5.561-5.927,5.269,5.269,0,0,1,2.129.452,5.555,5.555,0,0,1,1.8,1.285,5.967,5.967,0,0,1,1.205,1.923,6.265,6.265,0,0,1-.514,5.559,5.656,5.656,0,0,1-2.5,2.182,5.249,5.249,0,0,1-3.213.338,5.467,5.467,0,0,1-2.849-1.62,5.963,5.963,0,0,1-1.206-1.924A6.257,6.257,0,0,1,248.421,51.223Zm9.464,0a4.388,4.388,0,0,0-.3-1.592,4.188,4.188,0,0,0-.846-1.35,3.9,3.9,0,0,0-1.267-.9,3.681,3.681,0,0,0-2.989,0,3.9,3.9,0,0,0-1.267.9,4.185,4.185,0,0,0-.846,1.35,4.419,4.419,0,0,0,0,3.183,4.186,4.186,0,0,0,.846,1.35,3.9,3.9,0,0,0,1.267.9,3.7,3.7,0,0,0,1.494.317,3.792,3.792,0,0,0,2.76-1.22A4.3,4.3,0,0,0,257.885,51.223Zm-17.807-3.54V48.2a8.682,8.682,0,0,1-7.067,8.868,8.206,8.206,0,0,1-8.986-6.493,9.118,9.118,0,0,1,4.768-10.531A7.857,7.857,0,0,1,239,43.842l-1.449.889a6.21,6.21,0,0,0-7.768-3.148A7.1,7.1,0,0,0,225.6,49.37a6.369,6.369,0,0,0,12.689.033H231.94v-1.72Zm3.476-7.943h1.738V57.149h-1.738Zm-22.592,0V57.149h-3.5V50.128h-6.523V57.15H207.4V39.739h3.53v6.993h6.523V39.739h3.5Zm-14.947,3.4h-3.991V57.149h-3.462V43.135h-4.018v-3.4h11.47Zm-18.686-.029v3.656h5.284v3.366h-5.284v3.656H193.5v3.365h-9.733V39.74H193.5v3.366Z" transform="translate(-142.31 -30.487)" fill="#1e294f"/>
    </g>
    <text id="Presented_by" data-name="Presented by" transform="translate(28 19.565)" font-size="9" font-family="Raleway-SemiBold, Raleway" font-weight="600"><tspan x="-28.076" y="0">Presented by</tspan></text>
  </g>
</svg>
