<svg id="ethamsterdam-logo-black" xmlns="http://www.w3.org/2000/svg" width="336.519" height="76.882" viewBox="0 0 336.519 76.882">
  <path id="Path_1726" data-name="Path 1726" d="M29.569,81.073a2.16,2.16,0,0,1-1.168-.335l-26.7-17a2.182,2.182,0,0,1-.8-2.78L11.141,39.643l1.648.788L2.556,61.757a.356.356,0,0,0,.127.444l26.7,16.988a.344.344,0,0,0,.371,0L56.41,62.219a.348.348,0,0,0,.127-.453L45.308,39.933l1.621-.833L58.157,60.933a2.156,2.156,0,0,1-.77,2.825L30.746,80.729A2.223,2.223,0,0,1,29.569,81.073Z" transform="translate(-0.696 -4.191)"/>
  <path id="Path_1727" data-name="Path 1727" d="M39.205,59.69,37.467,37.395l1.82-.145,1.739,22.295Zm-15.974-.362-1.811-.208L23.856,37.8l1.811.208Z" transform="translate(-2.653 -4.016)"/>
  <path id="Path_1728" data-name="Path 1728" d="M34.892,64.382l-.534-6.058a2.682,2.682,0,0,0-5.343,0l-.534,6.058-1.82-.163.534-6.058a4.509,4.509,0,0,1,8.983,0l.534,6.058Z" transform="translate(-3.148 -5.603)"/>
  <path id="Path_1729" data-name="Path 1729" d="M25.25,23.062,12.21,13.291,13.795.55l17.169,16.6-1.277,1.313L15.153,4.408l-1,8.059L26.346,21.6Z" transform="translate(-1.783 -0.55)"/>
  <path id="Path_1730" data-name="Path 1730" d="M37.694,22.99l-1.277-1.3,14.136-13.8L42.52,6.9,32.6,18.389l-1.386-1.2L41.769,4.96,54.546,6.545Z" transform="translate(-3.578 -0.966)"/>
  <path id="Path_1731" data-name="Path 1731" d="M49,46.556,31.5,29.215l1.286-1.295,14.86,14.724,1-8.069L36.5,24.325l1.177-1.395,12.9,10.885Z" transform="translate(-3.605 -2.664)"/>
  <path id="Path_1732" data-name="Path 1732" d="M20.566,41.353,7.77,39.768l17.387-16.8,1.268,1.313L11.782,38.419l8.005,1L29.2,27.987l1.4,1.159Z" transform="translate(-1.364 -2.667)"/>
  <path id="Path_1733" data-name="Path 1733" d="M31.821,28.954a5.352,5.352,0,1,1,1.53-10.477h0a5.356,5.356,0,0,1,1,9.843A5.415,5.415,0,0,1,31.821,28.954Zm-.009-8.884a3.53,3.53,0,1,0,1.675,6.638,3.472,3.472,0,0,0,1.7-2.092,3.526,3.526,0,0,0-2.364-4.392h0A3.285,3.285,0,0,0,31.812,20.07Z" transform="translate(-3.129 -2.221)"/>
  <path id="Path_1734" data-name="Path 1734" d="M28.546,69.676a17.588,17.588,0,0,0-15.168-8.757A17.359,17.359,0,0,0,2.5,64.7L1.37,63.274A19.139,19.139,0,0,1,13.378,59.09a19.405,19.405,0,0,1,16.744,9.662Z" transform="translate(-0.76 -6.079)"/>
  <path id="Path_1735" data-name="Path 1735" d="M26.5,76.03A13.12,13.12,0,0,0,13.772,65.86a12.919,12.919,0,0,0-7.3,2.237L5.45,66.585a14.8,14.8,0,0,1,8.322-2.545,14.968,14.968,0,0,1,14.507,11.6Z" transform="translate(-1.145 -6.546)"/>
  <path id="Path_1736" data-name="Path 1736" d="M24.652,79.365H22.823a8.587,8.587,0,0,0-8.576-8.576,8.366,8.366,0,0,0-3.025.552L10.58,69.63a10.4,10.4,0,0,1,14.072,9.735Z" transform="translate(-1.629 -7.011)"/>
  <path id="Path_1737" data-name="Path 1737" d="M28.5,80.461c-.054-.58-.081-1.168-.081-1.757a19.613,19.613,0,0,1,32.2-15.041l-1.168,1.395A17.781,17.781,0,0,0,30.258,78.7c0,.525.027,1.069.072,1.594Z" transform="translate(-3.314 -6.079)"/>
  <path id="Path_1738" data-name="Path 1738" d="M33.541,81.554a14.873,14.873,0,0,1-.181-2.373,15.145,15.145,0,0,1,23.735-12.47l-1.032,1.5A13.33,13.33,0,0,0,35.18,79.19a13.479,13.479,0,0,0,.163,2.092Z" transform="translate(-3.781 -6.546)"/>
  <path id="Path_1739" data-name="Path 1739" d="M40.109,79.637H38.28a10.688,10.688,0,0,1,15.014-9.762l-.743,1.666a8.714,8.714,0,0,0-3.6-.761A8.874,8.874,0,0,0,40.109,79.637Z" transform="translate(-4.245 -7.011)"/>
  <path id="Path_1740" data-name="Path 1740" d="M87.83,54.343V28.77h5.687V54.343Zm4.347,0V49.417h14.018v4.926Zm0-10.686V38.912h12.75v4.745Zm0-10V28.77h13.837v4.89Z" transform="translate(-8.925 -3.215)"/>
  <path id="Path_1741" data-name="Path 1741" d="M117.665,54.343V29.132h5.687V54.343ZM109.66,33.732V28.77h21.7v4.962Z" transform="translate(-10.987 -3.215)"/>
  <path id="Path_1742" data-name="Path 1742" d="M137.13,54.343V28.77h5.687V54.343Zm15.829,0V28.77h5.723V54.343ZM140.535,43.657V38.731h14.308v4.926Z" transform="translate(-13.581 -3.215)"/>
  <path id="Path_1743" data-name="Path 1743" d="M164.87,54.388,175.157,29.25h2.463l10.251,25.138h-3.695l-8.44-21.263H177l-8.512,21.263Zm4.89-5.687v-2.97h13.221V48.7Z" transform="translate(-16.201 -3.26)"/>
  <path id="Path_1744" data-name="Path 1744" d="M194.12,55.178V37.972h3.26V55.178Zm11.627,0v-10.4a3.862,3.862,0,0,0-1.2-3.006,4.023,4.023,0,0,0-2.934-1.123,4.462,4.462,0,0,0-2.137.507,4.066,4.066,0,0,0-1.521,1.413,3.935,3.935,0,0,0-.58,2.173l-1.34-.652a6.752,6.752,0,0,1,.833-3.4,6.035,6.035,0,0,1,2.354-2.246,6.717,6.717,0,0,1,3.332-.833,6.635,6.635,0,0,1,3.26.8,5.765,5.765,0,0,1,2.318,2.246,6.563,6.563,0,0,1,.869,3.441V55.178Zm11.627,0v-10.4a3.862,3.862,0,0,0-1.2-3.006,3.982,3.982,0,0,0-2.9-1.123,4.687,4.687,0,0,0-2.173.507,4.066,4.066,0,0,0-1.521,1.413,3.935,3.935,0,0,0-.58,2.173l-1.847-.652a6.693,6.693,0,0,1,1.051-3.4,6.761,6.761,0,0,1,2.5-2.246,6.866,6.866,0,0,1,3.332-.833,6.961,6.961,0,0,1,3.369.8,6.035,6.035,0,0,1,2.355,2.246,6.418,6.418,0,0,1,.906,3.477V55.178h-3.3Z" transform="translate(-18.963 -4.05)"/>
  <path id="Path_1745" data-name="Path 1745" d="M233.651,55.54a10.107,10.107,0,0,1-2.753-.362,9.777,9.777,0,0,1-2.354-1.087,8.469,8.469,0,0,1-1.884-1.7l2.1-2.1a6.2,6.2,0,0,0,2.173,1.739,6.759,6.759,0,0,0,2.753.543,4.57,4.57,0,0,0,2.355-.507,1.8,1.8,0,0,0,.145-2.934,4.927,4.927,0,0,0-1.7-.869c-.7-.245-1.449-.471-2.246-.688a13.959,13.959,0,0,1-2.21-.906,5.009,5.009,0,0,1-1.739-1.485,4.3,4.3,0,0,1-.652-2.5A4.664,4.664,0,0,1,228.4,40a4.873,4.873,0,0,1,2.1-1.775,8.081,8.081,0,0,1,3.3-.616,8.48,8.48,0,0,1,3.586.724,6.219,6.219,0,0,1,2.608,2.1l-2.1,2.1a4.8,4.8,0,0,0-1.811-1.449,5.455,5.455,0,0,0-2.391-.507,3.934,3.934,0,0,0-2.173.507,1.517,1.517,0,0,0-.724,1.34,1.558,1.558,0,0,0,.652,1.34,5.846,5.846,0,0,0,1.7.8c.724.217,1.476.444,2.246.688a10.216,10.216,0,0,1,2.21.906,4.853,4.853,0,0,1,1.7,1.558,4.363,4.363,0,0,1,.688,2.572,4.68,4.68,0,0,1-1.739,3.84A6.982,6.982,0,0,1,233.651,55.54Z" transform="translate(-22.036 -4.05)"/>
  <path id="Path_1746" data-name="Path 1746" d="M247.888,54.464V30.05h3.26V54.464ZM243.65,40.228v-2.97h11.736v2.97Z" transform="translate(-23.641 -3.336)"/>
  <path id="Path_1747" data-name="Path 1747" d="M267.4,55.54a9.346,9.346,0,0,1-4.637-1.159,8.8,8.8,0,0,1-4.455-7.824,9.047,9.047,0,0,1,1.159-4.564,8.817,8.817,0,0,1,7.715-4.383,8,8,0,0,1,4.2,1.087,7.5,7.5,0,0,1,2.862,3.006,8.922,8.922,0,0,1,1.05,4.347c0,.245-.009.507-.036.8-.027.263-.072.58-.145.942H260.592V45.072h12.786l-1.2,1.05a6.39,6.39,0,0,0-.616-2.934,4.332,4.332,0,0,0-1.739-1.884,5.089,5.089,0,0,0-2.717-.688,5.824,5.824,0,0,0-2.934.724,4.966,4.966,0,0,0-1.956,2.028,6.463,6.463,0,0,0-.688,3.079,6.781,6.781,0,0,0,.724,3.188,5.18,5.18,0,0,0,2.065,2.1,6.416,6.416,0,0,0,3.079.724,6.747,6.747,0,0,0,2.644-.507,5.392,5.392,0,0,0,2.1-1.521l2.1,2.137a8,8,0,0,1-3.043,2.21A9.573,9.573,0,0,1,267.4,55.54Z" transform="translate(-25.025 -4.05)"/>
  <path id="Path_1748" data-name="Path 1748" d="M281,55.178V37.972h3.26V55.178Zm3.26-9.816-1.232-.543a8.326,8.326,0,0,1,1.521-5.252,5.217,5.217,0,0,1,4.383-1.956,5.636,5.636,0,0,1,2.354.471,5.357,5.357,0,0,1,1.956,1.485l-2.137,2.21a3.259,3.259,0,0,0-1.2-.833,4.121,4.121,0,0,0-1.521-.254,4.033,4.033,0,0,0-2.97,1.159A4.766,4.766,0,0,0,284.26,45.362Z" transform="translate(-27.168 -4.05)"/>
  <path id="Path_1749" data-name="Path 1749" d="M303.6,54.675a8.024,8.024,0,0,1-4.274-1.159,8.8,8.8,0,0,1-3.006-3.224,10.128,10.128,0,0,1,0-9.128,8.8,8.8,0,0,1,3.006-3.224,7.814,7.814,0,0,1,4.274-1.2,7.307,7.307,0,0,1,3.477.833,6.367,6.367,0,0,1,2.5,2.246,6.3,6.3,0,0,1,1.087,3.3V48.3a6.7,6.7,0,0,1-1.05,3.3,6.6,6.6,0,0,1-2.5,2.282A7.574,7.574,0,0,1,303.6,54.675Zm.543-3.079a5.15,5.15,0,0,0,2.825-.761,5.272,5.272,0,0,0,1.92-2.065,6.546,6.546,0,0,0,.688-3.043,6.266,6.266,0,0,0-.724-3.079,5.272,5.272,0,0,0-1.92-2.065,5.15,5.15,0,0,0-2.825-.761,5.341,5.341,0,0,0-2.862.761,5.406,5.406,0,0,0-1.956,2.1,6.319,6.319,0,0,0-.688,3.006,6.617,6.617,0,0,0,.688,3.079,5.323,5.323,0,0,0,4.854,2.825Zm8.512,2.717h-3.3V49.676l.616-4.2-.616-4.166V28.45h3.3Z" transform="translate(-28.512 -3.185)"/>
  <path id="Path_1750" data-name="Path 1750" d="M326.914,55.54a8.137,8.137,0,0,1-4.274-1.159,8.747,8.747,0,0,1-3.043-3.224,10.127,10.127,0,0,1,0-9.128,8.8,8.8,0,0,1,3.006-3.224,7.981,7.981,0,0,1,4.31-1.2,7.154,7.154,0,0,1,3.477.833,6.367,6.367,0,0,1,2.5,2.246,6.521,6.521,0,0,1,1.051,3.3v5.18a6.7,6.7,0,0,1-1.051,3.3,6.366,6.366,0,0,1-2.463,2.282A7.444,7.444,0,0,1,326.914,55.54Zm.543-3.079a5.032,5.032,0,0,0,3.912-1.63,6.156,6.156,0,0,0,1.485-4.238,6.464,6.464,0,0,0-.688-3.079,4.687,4.687,0,0,0-1.884-2.065,5.341,5.341,0,0,0-2.862-.761,5.514,5.514,0,0,0-2.9.761,5.407,5.407,0,0,0-1.956,2.1,6.319,6.319,0,0,0-.688,3.006,6.617,6.617,0,0,0,.688,3.079,5.454,5.454,0,0,0,1.992,2.065A5.514,5.514,0,0,0,327.457,52.461Zm5.18,2.717V50.541l.616-4.2-.616-4.166v-4.2h3.3V55.178Z" transform="translate(-30.71 -4.05)"/>
  <path id="Path_1751" data-name="Path 1751" d="M342.99,55.178V37.972h3.26V55.178Zm11.627,0v-10.4a3.862,3.862,0,0,0-1.2-3.006,4.023,4.023,0,0,0-2.934-1.123,4.461,4.461,0,0,0-2.137.507,4.066,4.066,0,0,0-1.521,1.413,3.936,3.936,0,0,0-.58,2.173l-1.34-.652a6.751,6.751,0,0,1,.833-3.4,6.035,6.035,0,0,1,2.354-2.246,6.717,6.717,0,0,1,3.332-.833,6.635,6.635,0,0,1,3.26.8,5.764,5.764,0,0,1,2.318,2.246,6.564,6.564,0,0,1,.869,3.441V55.178Zm11.627,0v-10.4a3.862,3.862,0,0,0-1.2-3.006,3.982,3.982,0,0,0-2.9-1.123,4.687,4.687,0,0,0-2.173.507,4.066,4.066,0,0,0-1.521,1.413,3.935,3.935,0,0,0-.58,2.173l-1.847-.652a6.693,6.693,0,0,1,1.05-3.4,6.761,6.761,0,0,1,2.5-2.246,6.866,6.866,0,0,1,3.332-.833,6.961,6.961,0,0,1,3.369.8,6.035,6.035,0,0,1,2.354,2.246,6.417,6.417,0,0,1,.906,3.477V55.178h-3.3Z" transform="translate(-33.022 -4.05)"/>
</svg>
