<svg xmlns="http://www.w3.org/2000/svg" width="285.454" height="40.048" viewBox="0 0 285.454 40.048">
  <g id="daohacks-logo" transform="translate(0)">
    <path id="Path_21" data-name="Path 21" d="M900.821,220.78h2.5L888.8,180.85h-2.509L871.77,220.78h2.5l3.758-10.37h19.036Zm-22-12.588,8.695-24,8.731,24Z" transform="translate(-716.919 -180.846)" fill="#1f1f24"/>
    <path id="Path_22" data-name="Path 22" d="M1039.775,221.3a16.787,16.787,0,0,1-9.541-2.556,15.651,15.651,0,0,1-5.737-7.053,28.926,28.926,0,0,1,0-20.709,15.643,15.643,0,0,1,5.737-7.055,16.758,16.758,0,0,1,9.541-2.553q6.7,0,10.808,3.5a17.274,17.274,0,0,1,5.536,9.331l-2.341.532a15.308,15.308,0,0,0-4.779-8.1,13.627,13.627,0,0,0-9.224-3.023,14.051,14.051,0,0,0-8.185,2.263,13.756,13.756,0,0,0-4.915,6.268,24.6,24.6,0,0,0-1.7,9.2,23.3,23.3,0,0,0,1.6,9.184,13.8,13.8,0,0,0,4.966,6.268,14.194,14.194,0,0,0,8.237,2.274,13.585,13.585,0,0,0,9.224-3.034,15.354,15.354,0,0,0,4.779-8.091l2.341.532a17.326,17.326,0,0,1-5.536,9.329Q1046.479,221.293,1039.775,221.3Z" transform="translate(-834.038 -181.249)" fill="#1f1f24"/>
    <path id="Path_23" data-name="Path 23" d="M1202.7,223.27V184.94h2.234v18.318l18.951-18.318h3.087l-18.792,18.318,20.5,20.016h-3.087l-20.655-20.016v20.016Z" transform="translate(-973.92 -184.022)" fill="#1f1f24"/>
    <path id="Path_24" data-name="Path 24" d="M1345.121,221.256a18.36,18.36,0,0,1-6.985-1.264,13.487,13.487,0,0,1-5.138-3.574,12.04,12.04,0,0,1-2.728-5.484l2.234-.427a10.542,10.542,0,0,0,4.417,6.231,14.266,14.266,0,0,0,8.2,2.288,14.909,14.909,0,0,0,5.858-1.063,8.969,8.969,0,0,0,3.885-3,7.542,7.542,0,0,0,1.385-4.51,6.659,6.659,0,0,0-.719-3.248,6.429,6.429,0,0,0-1.823-2.116,10.434,10.434,0,0,0-2.3-1.291,22.127,22.127,0,0,0-2.129-.746l-9.582-2.875a16.1,16.1,0,0,1-3.575-1.49,9.549,9.549,0,0,1-2.457-1.995,7.589,7.589,0,0,1-1.425-2.457,8.548,8.548,0,0,1-.465-2.848,8.882,8.882,0,0,1,1.584-5.2,10.576,10.576,0,0,1,4.406-3.574,15.475,15.475,0,0,1,6.521-1.291,15.817,15.817,0,0,1,6.734,1.383,12.734,12.734,0,0,1,4.888,3.907,12.482,12.482,0,0,1,2.381,5.9l-2.234.427a10.251,10.251,0,0,0-1.968-4.915,10.722,10.722,0,0,0-4.126-3.286,13.323,13.323,0,0,0-5.67-1.173A12.6,12.6,0,0,0,1339,184.6a8.793,8.793,0,0,0-3.554,2.795,6.545,6.545,0,0,0-1.277,3.941,5.251,5.251,0,0,0,1.237,3.659,8.49,8.49,0,0,0,3.023,2.129,31.143,31.143,0,0,0,3.406,1.238l7.931,2.4q1.012.293,2.478.865a12.375,12.375,0,0,1,2.886,1.637,8.464,8.464,0,0,1,2.37,2.808,9.115,9.115,0,0,1,.945,4.379,10.442,10.442,0,0,1-.932,4.468,9.426,9.426,0,0,1-2.681,3.407,12.533,12.533,0,0,1-4.2,2.169A18.451,18.451,0,0,1,1345.121,221.256Z" transform="translate(-1072.992 -181.211)" fill="#1f1f24"/>
    <path id="Path_25" data-name="Path 25" d="M178.6,220.614V180.85h13.7a33.227,33.227,0,0,1,7.079.57,13.491,13.491,0,0,1,5.833,2.848,16.21,16.21,0,0,1,4.707,6.8,26.617,26.617,0,0,1,1.564,9.454,27.767,27.767,0,0,1-1.059,8.031,19.348,19.348,0,0,1-2.716,5.786,14.393,14.393,0,0,1-3.621,3.608,14.719,14.719,0,0,1-4.747,1.995,27.149,27.149,0,0,1-6.389.67Z" transform="translate(-178.6 -180.846)" fill="#7756fb"/>
    <path id="Path_26" data-name="Path 26" d="M352.283,180.83h-5.67L331.34,220.6h37.22Z" transform="translate(-297.218 -180.83)" fill="#6552db"/>
    <path id="Path_27" data-name="Path 27" d="M500.51,201.311q0-9.606,5.317-15.043a18.354,18.354,0,0,1,13.726-5.437,19.506,19.506,0,0,1,9.93,2.553,16.883,16.883,0,0,1,6.74,7.122,22.564,22.564,0,0,1,2.319,10.359,22.16,22.16,0,0,1-2.442,10.5,16.393,16.393,0,0,1-6.925,7.015,20.242,20.242,0,0,1-9.657,2.381,19.244,19.244,0,0,1-10.037-2.632,17.13,17.13,0,0,1-6.7-7.187A21.252,21.252,0,0,1,500.51,201.311Z" transform="translate(-428.596 -180.83)" fill="#7d74ed"/>
    <rect id="Rectangle_69" data-name="Rectangle 69" width="31.197" height="15.973" transform="translate(116.186 0)" fill="#7756fb"/>
    <rect id="Rectangle_70" data-name="Rectangle 70" width="31.197" height="17.554" transform="translate(116.186 22.214)" fill="#7756fb"/>
  </g>
</svg>
