<svg id="Group_2030" data-name="Group 2030" xmlns="http://www.w3.org/2000/svg" xmlns:xlink="http://www.w3.org/1999/xlink" width="280.728" height="469.8" viewBox="0 0 280.728 469.8">
  <defs>
    <clipPath id="clip-path">
      <rect id="Rectangle_189" data-name="Rectangle 189" width="280.728" height="469.8" fill="none"/>
    </clipPath>
  </defs>
  <path id="Path_1805" data-name="Path 1805" d="M87.543,208.387l-2.5-10.01-4.38-13.764-9.384-20.646-10.01-26.277-5.63-25.025L49.38,89.516l-7.508-24.4L38.744,46.972V18.819L45,9.434l10.635-5h9.384l12.513,21.9,10.01,33.784,10.635,46.3,9.384,51.3,8.133,44.42,20.646-.627,11.886,11.262,10.011,21.9,2.5,21.9v27.528l-9.384,5-3.129-11.262-2.5-10.635-5.63-6.881-5.632,4.378,1.252,24.4v5.63l-11.262,3.754-6.881-10.635-4.38-8.759-8.133-1.878-5.318,8.133,3.44,16.892H80.035l-10.01-25.651-3.754-21.272,1.878-19.394,9.384-18.769Z" transform="translate(4.685 0.536)" fill="none" stroke="#040405" stroke-miterlimit="10" stroke-width="2"/>
  <g id="Group_2025" data-name="Group 2025">
    <g id="Group_2024" data-name="Group 2024" clip-path="url(#clip-path)">
      <path id="Path_1806" data-name="Path 1806" d="M66.1,4.834,45.768,1.08,29.814,17.347V41.121l10.01,33.785,3.754,30.03,10.587,30.656,12.561,35.036,8.759,21.9,5,13.137-5.318,8.446L67.351,224.12l-5.943,16.891L61.1,263.534l3.754,15.954,6.256,14.077,3.129,9.072h6.881" transform="translate(3.605 0.131)" fill="none" stroke="#040405" stroke-miterlimit="10" stroke-width="2"/>
    </g>
  </g>
  <line id="Line_4" data-name="Line 4" x1="8.134" y1="3.129" transform="translate(84.095 205.794)" fill="none" stroke="#040405" stroke-miterlimit="10" stroke-width="2"/>
  <path id="Path_1807" data-name="Path 1807" d="M93.162,255.2l6.569-1.564,5.319,2.815,4.38,12.513,8.445-.625" transform="translate(11.266 30.673)" fill="none" stroke="#040405" stroke-miterlimit="10" stroke-width="2"/>
  <path id="Path_1808" data-name="Path 1808" d="M124.139,236.615l5.63,7.2,4.067,13.451,1.251,6.1,5.944-2.346" transform="translate(15.013 28.615)" fill="none" stroke="#040405" stroke-miterlimit="10" stroke-width="2"/>
  <line id="Line_5" data-name="Line 5" y1="3.129" x2="12.826" transform="translate(107.87 299.639)" fill="none" stroke="#040405" stroke-miterlimit="10" stroke-width="2"/>
  <line id="Line_6" data-name="Line 6" y1="3.284" x2="9.697" transform="translate(140.403 291.976)" fill="none" stroke="#040405" stroke-miterlimit="10" stroke-width="2"/>
  <path id="Path_1809" data-name="Path 1809" d="M73.534,277.917h7.925l20.228,1.043,3.7,20.021H88.132l-8.863-3.545Z" transform="translate(8.893 33.61)" fill="none" stroke="#040405" stroke-miterlimit="10" stroke-width="2"/>
  <path id="Path_1810" data-name="Path 1810" d="M110.558,278.39l5.213,18.143,5.63-3.129,10.48-7.715-1.512-11.679-13.347,4.38Z" transform="translate(13.37 33.137)" fill="none" stroke="#040405" stroke-miterlimit="10" stroke-width="2"/>
  <path id="Path_1811" data-name="Path 1811" d="M143.227,266.679l-7.925,4.588,3.962,16.893,5.839,12.93,6.883-6.674,4.8-6.464-1.876-22.523-2.92-4.953Z" transform="translate(16.363 31.5)" fill="none" stroke="#040405" stroke-miterlimit="10" stroke-width="2"/>
  <line id="Line_7" data-name="Line 7" x2="6.673" y2="21.063" transform="translate(90.352 311.527)" fill="none" stroke="#040405" stroke-miterlimit="10" stroke-width="2"/>
  <line id="Line_8" data-name="Line 8" x2="4.379" y2="15.015" transform="translate(130.393 311.527)" fill="none" stroke="#040405" stroke-miterlimit="10" stroke-width="2"/>
  <path id="Path_1812" data-name="Path 1812" d="M142.372,266.01l2.816,15.432L148.6,296.2" transform="translate(17.218 32.17)" fill="none" stroke="#040405" stroke-miterlimit="10" stroke-width="2"/>
  <path id="Path_1813" data-name="Path 1813" d="M86.558,309.048v8.759L97.4,319.058h12.1v-12.3l-15.536,2.92Z" transform="translate(10.468 37.097)" fill="none" stroke="#040405" stroke-miterlimit="10" stroke-width="2"/>
  <path id="Path_1814" data-name="Path 1814" d="M118.278,306.953l2.189,7.821,5.632-1.148,9.7-7.715-1.147-14.6L123.6,303.043Z" transform="translate(14.304 35.23)" fill="none" stroke="#040405" stroke-miterlimit="10" stroke-width="2"/>
  <line id="Line_9" data-name="Line 9" x2="3.441" y2="9.384" transform="translate(104.429 346.771)" fill="none" stroke="#040405" stroke-miterlimit="10" stroke-width="2"/>
  <line id="Line_10" data-name="Line 10" x2="2.503" y2="10.584" transform="translate(137.9 338.273)" fill="none" stroke="#040405" stroke-miterlimit="10" stroke-width="2"/>
  <path id="Path_1815" data-name="Path 1815" d="M93.162,326.847h18.665l12.93,38.372-4.8-1.459-13.138-13.885L98.9,338.735Z" transform="translate(11.266 39.527)" fill="none" stroke="#040405" stroke-miterlimit="10" stroke-width="2"/>
  <path id="Path_1816" data-name="Path 1816" d="M124.139,325.864l13.972-8.133,4.588,20.855,8.1,22.523-15.714-18.56Z" transform="translate(15.013 38.424)" fill="none" stroke="#040405" stroke-miterlimit="10" stroke-width="2"/>
  <path id="Path_1817" data-name="Path 1817" d="M147.581,312.524l11.888-12.1,4.8,21.9,8.55,21.9-11.679-11.261-8.55-11.47Z" transform="translate(17.848 36.332)" fill="none" stroke="#040405" stroke-miterlimit="10" stroke-width="2"/>
  <path id="Path_1818" data-name="Path 1818" d="M98.465,326.847l7.716,14.181,11.052,20.528" transform="translate(11.908 39.527)" fill="none" stroke="#040405" stroke-miterlimit="10" stroke-width="2"/>
  <line id="Line_11" data-name="Line 11" x2="8.733" y2="23.774" transform="translate(145.252 361.786)" fill="none" stroke="#040405" stroke-miterlimit="10" stroke-width="2"/>
  <line id="Line_12" data-name="Line 12" x2="9.94" y2="24.116" transform="translate(169.043 345.178)" fill="none" stroke="#040405" stroke-miterlimit="10" stroke-width="2"/>
  <path id="Path_1819" data-name="Path 1819" d="M65.122,206.481,47.01,218.049,32.933,238.694,27.3,259.341l2.816,22.836,5.318,11.262L40.127,304.7,52.64,316.587l7.2,5.213v15.015l5.286,16.058,6.913,9.384,8.759-3.5-7.82-8.074-5.006-15.328.314-10.323,13.137,9.7,3.441,18.143,8.863,19.707,7.4,14.077,16.266,12.826,8.446-2.5L110.98,385.407,98.312,360.589l-4.588-22.731,7.4,3.546" transform="translate(3.302 24.971)" fill="none" stroke="#040405" stroke-miterlimit="10" stroke-width="2"/>
  <line id="Line_13" data-name="Line 13" y1="2.085" x2="16.058" transform="translate(123.094 364.289)" fill="none" stroke="#040405" stroke-miterlimit="10" stroke-width="2"/>
  <line id="Line_14" data-name="Line 14" y1="7.3" x2="12.304" transform="translate(153.124 348.856)" fill="none" stroke="#040405" stroke-miterlimit="10" stroke-width="2"/>
  <line id="Line_15" data-name="Line 15" x1="8.446" y1="3.233" transform="translate(63.137 346.77)" fill="none" stroke="#040405" stroke-miterlimit="10" stroke-width="2"/>
  <line id="Line_16" data-name="Line 16" x2="12.304" y2="3.129" transform="translate(84.721 359.701)" fill="none" stroke="#040405" stroke-miterlimit="10" stroke-width="2"/>
  <line id="Line_17" data-name="Line 17" y1="6.152" x2="14.806" transform="translate(119.965 350.004)" fill="none" stroke="#040405" stroke-miterlimit="10" stroke-width="2"/>
  <line id="Line_18" data-name="Line 18" y1="8.55" x2="11.366" transform="translate(150.1 332.59)" fill="none" stroke="#040405" stroke-miterlimit="10" stroke-width="2"/>
  <path id="Path_1820" data-name="Path 1820" d="M155.255,290.2l4.9-10.427.938-15.406-2.919-9.307-10.251-13.138,4.619,1.565,9.7,5.865,2.815,5.709,2.816,12.2V282.27l-2.816,13.764-5.63,11.47" transform="translate(17.889 29.256)" fill="none" stroke="#040405" stroke-miterlimit="10" stroke-width="2"/>
  <line id="Line_19" data-name="Line 19" y1="9.057" x2="3.813" transform="translate(165.428 275.567)" fill="none" stroke="#040405" stroke-miterlimit="10" stroke-width="2"/>
  <line id="Line_20" data-name="Line 20" y1="10.292" x2="5.665" transform="translate(168.348 281.683)" fill="none" stroke="#040405" stroke-miterlimit="10" stroke-width="2"/>
  <line id="Line_21" data-name="Line 21" y1="9.15" x2="7.803" transform="translate(171.181 293.617)" fill="none" stroke="#040405" stroke-miterlimit="10" stroke-width="2"/>
  <line id="Line_22" data-name="Line 22" x1="7.872" y2="9.835" transform="translate(145.252 308.991)" fill="none" stroke="#040405" stroke-miterlimit="10" stroke-width="2"/>
  <line id="Line_23" data-name="Line 23" y1="6.883" x2="6.673" transform="translate(148.953 319.659)" fill="none" stroke="#040405" stroke-miterlimit="10" stroke-width="2"/>
  <line id="Line_24" data-name="Line 24" x1="12.617" y2="1.668" transform="translate(119.965 342.183)" fill="none" stroke="#040405" stroke-miterlimit="10" stroke-width="2"/>
  <line id="Line_25" data-name="Line 25" y1="2.92" x2="14.859" transform="translate(114.283 329.67)" fill="none" stroke="#040405" stroke-miterlimit="10" stroke-width="2"/>
  <path id="Path_1821" data-name="Path 1821" d="M80.1,295.708l-8.289-8.133-5.162-11.92,7.717,2.536" transform="translate(8.06 33.336)" fill="none" stroke="#040405" stroke-miterlimit="10" stroke-width="2"/>
  <path id="Path_1822" data-name="Path 1822" d="M71.77,273.1l-15.954-4.588-5.63-8.238,1.515-8.259,9.59-6.717" transform="translate(6.069 29.665)" fill="none" stroke="#040405" stroke-miterlimit="10" stroke-width="2"/>
  <path id="Path_1823" data-name="Path 1823" d="M60.632,238.455,49.77,243.9,40.7,252.845v13.578l7.82,7.507,7.821,4.379,13.451,1.844" transform="translate(4.922 28.837)" fill="none" stroke="#040405" stroke-miterlimit="10" stroke-width="2"/>
  <line id="Line_26" data-name="Line 26" y1="1.042" x2="13.347" transform="translate(110.581 311.527)" fill="none" stroke="#040405" stroke-miterlimit="10" stroke-width="2"/>
  <line id="Line_27" data-name="Line 27" y1="4.379" x2="7.925" transform="translate(143.74 302.768)" fill="none" stroke="#040405" stroke-miterlimit="10" stroke-width="2"/>
  <path id="Path_1824" data-name="Path 1824" d="M90.416,313.008l-17.153-7.872-8.29-8.6-6.256-7.611-2.189-10.532-1.878-4.379" transform="translate(6.609 33.137)" fill="none" stroke="#040405" stroke-miterlimit="10" stroke-width="2"/>
  <path id="Path_1825" data-name="Path 1825" d="M55.209,268.013l1.251-7.925,5.318-10.635" transform="translate(6.677 30.167)" fill="none" stroke="#040405" stroke-miterlimit="10" stroke-width="2"/>
  <path id="Path_1826" data-name="Path 1826" d="M60.844,223.222,47.832,230.1l-8.446,15.016L33.441,261.9l1.252,29.51" transform="translate(4.044 26.995)" fill="none" stroke="#040405" stroke-miterlimit="10" stroke-width="2"/>
  <path id="Path_1827" data-name="Path 1827" d="M47.917,270.1l-2.253,12.513,8.979,15.849,17.674,14.049L91.5,322.24" transform="translate(5.522 32.665)" fill="none" stroke="#040405" stroke-miterlimit="10" stroke-width="2"/>
  <path id="Path_1828" data-name="Path 1828" d="M45.482,224.54l-5.138-9.689-8.133-7.189L17.2,196.708,10,201.4l9.384,4.38,5.943,8.446L32.21,224.54l7.6,8.318" transform="translate(1.209 23.789)" fill="none" stroke="#040405" stroke-miterlimit="10" stroke-width="2"/>
  <g id="Group_2027" data-name="Group 2027">
    <g id="Group_2026" data-name="Group 2026" clip-path="url(#clip-path)">
      <path id="Path_1829" data-name="Path 1829" d="M33.29,241.917l-9.7,2.5L13.27,249.347,4.2,255.368,1.07,264.362,5.762,275.7l7.2-12.982,17.517-7.664" transform="translate(0.129 29.256)" fill="none" stroke="#040405" stroke-miterlimit="10" stroke-width="2"/>
      <path id="Path_1830" data-name="Path 1830" d="M145.692,212.833l18.7,5.7,16.58,10.635,25.026,20.06,16.266,20.293L240.4,300.8l11.575,24.922,10.01,34.1v42.022L259.8,442.4l-13.764-5.839" transform="translate(17.619 25.739)" fill="none" stroke="#040405" stroke-miterlimit="10" stroke-width="2"/>
      <path id="Path_1831" data-name="Path 1831" d="M163.209,253.638l19.811,10.948,10.845,13.731,14.181,18.962,14.181,22.051v33.724l-4.588,28.526-7.091,27.945-12.095,27.946-13.764-5.84" transform="translate(19.737 30.673)" fill="none" stroke="#040405" stroke-miterlimit="10" stroke-width="2"/>
    </g>
  </g>
  <path id="Path_1832" data-name="Path 1832" d="M196.989,275.655l-1.147,34.026-8.863,26.277-12.93,27.111L157.4,389.346l-20.029,24.191,15.059,13.347,13.9-22.523,17.726-28.78L195.843,344.6l2.815-16.667,1.669-34.723" transform="translate(16.613 33.336)" fill="none" stroke="#040405" stroke-miterlimit="10" stroke-width="2"/>
  <path id="Path_1833" data-name="Path 1833" d="M147.925,220.429l17.132,9.562,17.726,14.525,12.93,8.446,19.6,21.585,21.272,42.647" transform="translate(17.889 26.657)" fill="none" stroke="#040405" stroke-miterlimit="10" stroke-width="2"/>
  <g id="Group_2029" data-name="Group 2029">
    <g id="Group_2028" data-name="Group 2028" clip-path="url(#clip-path)">
      <path id="Path_1834" data-name="Path 1834" d="M226.287,295.405l11.261,21.376,5.423,21.167v61.521l-5.423,27.111-21.688,5.839" transform="translate(26.105 35.725)" fill="none" stroke="#040405" stroke-miterlimit="10" stroke-width="2"/>
      <path id="Path_1835" data-name="Path 1835" d="M224.592,295.405l4.26,33.158v57.142l-4.588,22.94-5.839,23.774H194.65" transform="translate(23.54 35.725)" fill="none" stroke="#040405" stroke-miterlimit="10" stroke-width="2"/>
    </g>
  </g>
  <path id="Path_1836" data-name="Path 1836" d="M207.213,292.571l1.668,33.312-1.668,33.471-8.342,29.718-15.015,37.851-13.764-4.588" transform="translate(20.57 35.382)" fill="none" stroke="#040405" stroke-miterlimit="10" stroke-width="2"/>
  <path id="Path_1837" data-name="Path 1837" d="M200.826,282.17l2.4,21.979,1.736,24.556-9.593,38.964-22.94,55.924-21.619,2.5" transform="translate(18.238 34.124)" fill="none" stroke="#040405" stroke-miterlimit="10" stroke-width="2"/>
  <path id="Path_1838" data-name="Path 1838" d="M162.371,221.258l32.846-30.969,5,7.2L181.3,215.559l-7.256,13.186" transform="translate(19.636 23.012)" fill="none" stroke="#040405" stroke-miterlimit="10" stroke-width="2"/>
  <path id="Path_1839" data-name="Path 1839" d="M185.649,236.623l9.865-9.952,12.512-9.677-4.171-9.551-12.825,9.551L177.163,229.82" transform="translate(21.425 25.087)" fill="none" stroke="#040405" stroke-miterlimit="10" stroke-width="2"/>
  <path id="Path_1840" data-name="Path 1840" d="M149.282,233.474,170.211,244.5,192,260.631l11.4,16.091,7.992,14.7L221.43,317.91" transform="translate(18.053 28.235)" fill="none" stroke="#040405" stroke-miterlimit="10" stroke-width="2"/>
</svg>
