<svg id="Group_3" data-name="Group 3" xmlns="http://www.w3.org/2000/svg" width="618.494" height="583.748" viewBox="0 0 618.494 583.748">
  <rect id="Rectangle_91" data-name="Rectangle 91" width="618.494" height="583.747" transform="translate(0 0)" fill="#dedede"/>
  <text id="Excepteur_sint_occaecat_cupidatat_non_proident_sunt_in" data-name="Excepteur sint 
occaecat cupidatat 
non proident, sunt in" transform="translate(55.595 188.937)" font-size="46" font-family="Raleway-Bold, Raleway" font-weight="700"><tspan x="0" y="0">Excepteur sint </tspan><tspan x="0" y="69">occaecat cupidatat </tspan><tspan x="0" y="138">non proident, sunt in</tspan></text>
  <text id="Medium_Post" data-name="Medium Post" transform="translate(55.595 69.595)" font-size="15" font-family="Raleway-Bold, Raleway" font-weight="700"><tspan x="0" y="0">Medium Post</tspan></text>
  <g id="time" transform="translate(452.043 52.152)">
    <text id="_1h_ago" data-name="1h ago" transform="translate(43.679 21.127)" font-size="21" font-family="Raleway-Regular, Raleway"><tspan x="0" y="0">1h ago</tspan></text>
    <g id="Component_22_7" data-name="Component 22 – 7" transform="translate(0 0)">
      <path id="Path_13" data-name="Path 13" d="M4.369,4.369A13.222,13.222,0,0,1,14.565,0a13.223,13.223,0,0,1,10.2,4.369,13.222,13.222,0,0,1,4.369,10.2,13.223,13.223,0,0,1-4.369,10.2,13.223,13.223,0,0,1-10.2,4.369,13.222,13.222,0,0,1-10.2-4.369C1.7,21.847,0,18.692,0,14.565A13.222,13.222,0,0,1,4.369,4.369Zm16.75,16.75,1.7-1.7L16.75,13.351l-2.185-9.71H12.137V14.565a2.2,2.2,0,0,0,.728,1.7.848.848,0,0,0,.485.243Z"/>
    </g>
  </g>
  <text id="Excepteur_sint_occaecat_cupidatat_non_proident_sunt_in_culpa_qui_officia_deserunt_Read_More_" data-name="Excepteur sint occaecat cupidatat 
non proident, sunt in culpa qui 
officia deserunt … Read More &gt;" transform="translate(55.595 411.216)" font-size="31" font-family="Raleway-Regular, Raleway"><tspan x="0" y="0">Excepteur sint occaecat cupidatat </tspan><tspan x="0" y="53">non proident, sunt in culpa qui </tspan><tspan x="0" y="106">officia deserunt … Read More &gt;</tspan></text>
</svg>
