<svg xmlns="http://www.w3.org/2000/svg" width="467.119" height="467.409" viewBox="0 0 467.119 467.409">
  <g id="Group_10708" data-name="Group 10708" transform="translate(-1287.378 -263.161)">
    <rect id="Rectangle_2367" data-name="Rectangle 2367" width="92.54" height="92.54" transform="translate(1380.916 638.029)" fill="#1a1a1a"/>
    <rect id="Rectangle_2368" data-name="Rectangle 2368" width="92.54" height="92.54" transform="translate(1287.378 638.029)" fill="#1a1a1a"/>
    <rect id="Rectangle_2369" data-name="Rectangle 2369" width="92.54" height="92.54" transform="translate(1474.457 638.029)" fill="#1a1a1a"/>
    <rect id="Rectangle_2370" data-name="Rectangle 2370" width="92.54" height="92.54" transform="translate(1661.816 638.029)" fill="#1a1a1a"/>
    <rect id="Rectangle_2371" data-name="Rectangle 2371" width="92.54" height="92.54" transform="translate(1568.277 638.029)" fill="#1a1a1a"/>
    <rect id="Rectangle_2372" data-name="Rectangle 2372" width="92.54" height="92.54" transform="translate(1287.378 356.701)" fill="#1a1a1a"/>
    <rect id="Rectangle_2373" data-name="Rectangle 2373" width="92.54" height="92.54" transform="translate(1287.378 263.161)" fill="#1a1a1a"/>
    <rect id="Rectangle_2374" data-name="Rectangle 2374" width="92.54" height="92.54" transform="translate(1287.378 450.241)" fill="#1a1a1a"/>
    <rect id="Rectangle_2375" data-name="Rectangle 2375" width="92.54" height="92.54" transform="translate(1287.378 544.069)" fill="#1a1a1a"/>
    <rect id="Rectangle_2376" data-name="Rectangle 2376" width="92.54" height="92.54" transform="translate(1568.137 263.31)" fill="#1a1a1a"/>
    <rect id="Rectangle_2377" data-name="Rectangle 2377" width="92.54" height="92.54" transform="translate(1661.677 263.31)" fill="#1a1a1a"/>
    <rect id="Rectangle_2378" data-name="Rectangle 2378" width="92.54" height="92.54" transform="translate(1474.598 263.31)" fill="#1a1a1a"/>
    <rect id="Rectangle_2379" data-name="Rectangle 2379" width="92.54" height="92.54" transform="translate(1380.776 263.31)" fill="#1a1a1a"/>
    <rect id="Rectangle_2380" data-name="Rectangle 2380" width="92.54" height="92.54" transform="translate(1661.957 356.709)" fill="#1a1a1a"/>
    <rect id="Rectangle_2381" data-name="Rectangle 2381" width="92.54" height="92.54" transform="translate(1661.957 450.249)" fill="#1a1a1a"/>
    <rect id="Rectangle_2382" data-name="Rectangle 2382" width="92.54" height="92.54" transform="translate(1661.957 544.078)" fill="#1a1a1a"/>
    <rect id="Rectangle_2383" data-name="Rectangle 2383" width="92.54" height="92.54" transform="translate(1380.627 357.85)" fill="#fff"/>
    <rect id="Rectangle_2384" data-name="Rectangle 2384" width="92.54" height="92.54" transform="translate(1380.627 450.389)" fill="#fff"/>
    <rect id="Rectangle_2385" data-name="Rectangle 2385" width="92.54" height="92.54" transform="translate(1380.627 543.218)" fill="#fff"/>
    <rect id="Rectangle_2386" data-name="Rectangle 2386" width="92.54" height="92.54" transform="translate(1568.129 357.85)" fill="#fff"/>
    <rect id="Rectangle_2387" data-name="Rectangle 2387" width="92.54" height="92.54" transform="translate(1473.308 357.85)" fill="#fff"/>
    <rect id="Rectangle_2388" data-name="Rectangle 2388" width="92.54" height="92.54" transform="translate(1566.987 542.929)" fill="#fff"/>
    <rect id="Rectangle_2389" data-name="Rectangle 2389" width="92.54" height="92.54" transform="translate(1473.167 542.929)" fill="#fff"/>
    <rect id="Rectangle_2390" data-name="Rectangle 2390" width="92.54" height="92.54" transform="translate(1566.427 450.67)" fill="#fff"/>
    <path id="Path_1660" data-name="Path 1660" d="M67.41,21.141a46.27,46.27,0,1,1-46.27,46.27,46.266,46.266,0,0,1,46.27-46.27" transform="translate(1453.527 429.454)" fill="#1a1a1a"/>
  </g>
</svg>