<svg id="Component_22_7" data-name="Component 22 – 7" xmlns="http://www.w3.org/2000/svg" width="29.13" height="29.13" viewBox="0 0 29.13 29.13">
  <path id="Path_13" data-name="Path 13" d="M4.369,4.369A13.222,13.222,0,0,1,14.565,0a13.223,13.223,0,0,1,10.2,4.369,13.222,13.222,0,0,1,4.369,10.2,13.223,13.223,0,0,1-4.369,10.2,13.223,13.223,0,0,1-10.2,4.369,13.222,13.222,0,0,1-10.2-4.369C1.7,21.847,0,18.692,0,14.565A13.222,13.222,0,0,1,4.369,4.369Zm16.75,16.75,1.7-1.7L16.75,13.351l-2.185-9.71H12.137V14.565a2.2,2.2,0,0,0,.728,1.7.848.848,0,0,0,.485.243Z"/>
</svg>
