<svg id="Group_1986" data-name="Group 1986" xmlns="http://www.w3.org/2000/svg" width="248.196" height="236.492" viewBox="0 0 248.196 236.492">
  <path id="Path_1615" data-name="Path 1615" d="M70.364,518.455v42.484l36.5-38.083a10.98,10.98,0,0,1-2.3-4.4Z" transform="translate(9.413 -429.633)" fill="#fff"/>
  <path id="Path_1616" data-name="Path 1616" d="M252.866,494.278H96.39L48.649,640.548,173.206,730.77l123.639-91.589ZM226.51,591.429a11.061,11.061,0,0,1-10.7-8.328H184.03a10.932,10.932,0,0,1-14.53,7.6l-46.591,48.6V577.582H162.63a11.036,11.036,0,0,1,21.4,0h31.779a11.071,11.071,0,1,1,10.7,13.847Z" transform="translate(-48.649 -494.278)" fill="#fff"/>
</svg>
