<svg id="Group_1985" data-name="Group 1985" xmlns="http://www.w3.org/2000/svg" width="248.2" height="236.492" viewBox="0 0 248.2 236.492">
  <path id="Path_1613" data-name="Path 1613" d="M475.678,383.04v33.428a10.934,10.934,0,0,1,7.62,14.5l41.6,38.208,21.933-44.141-22.116.041Z" transform="translate(-389.692 -323.054)" fill="#fff"/>
  <path id="Path_1614" data-name="Path 1614" d="M656.494,366.712H500.014l-47.741,146.27L576.834,603.2l123.639-91.589Zm-18.938,109.62a11.054,11.054,0,0,1-10.492-7.667l-11.484.022-26.426,53.179L542.7,479.2a11.011,11.011,0,0,1-4.438,2.326v39.427h-5.518V481.526a11.038,11.038,0,0,1,0-21.4V414.7l56.6,48.52,22.822-.04,21.72-43.708,4.934,2.454-20.489,41.239,8.358-.015a11.083,11.083,0,1,1,10.875,13.182Z" transform="translate(-452.273 -366.712)" fill="#fff"/>
</svg>
