<svg id="Group_1982" data-name="Group 1982" xmlns="http://www.w3.org/2000/svg" width="248.197" height="236.491" viewBox="0 0 248.197 236.491">
  <path id="Path_1603" data-name="Path 1603" d="M370.946,257.307v36.749H411.3l-38.689-37.289A11.067,11.067,0,0,1,370.946,257.307Z" transform="translate(-294.369 -187.57)" fill="#fff"/>
  <path id="Path_1604" data-name="Path 1604" d="M411.508,293.342h42.683l-80.351-36.308Z" transform="translate(-286.628 -186.856)" fill="#fff"/>
  <path id="Path_1605" data-name="Path 1605" d="M554.319,237.932H397.84L350.1,384.2l124.557,90.222L598.3,382.835Zm-25.647,112-1.146,49.413-5.518-.062v-49.35H421.161V307.669a11.162,11.162,0,1,1,13.16-6.966l87.687,39.626V309.818a11.146,11.146,0,1,1,5.518-.176v33.182l15.742,7.113Z" transform="translate(-350.102 -237.932)" fill="#fff"/>
</svg>
