<svg id="Group_1983" data-name="Group 1983" xmlns="http://www.w3.org/2000/svg" width="248.196" height="236.492" viewBox="0 0 248.196 236.492">
  <path id="Path_1606" data-name="Path 1606" d="M492.125,261.556v15.133h32.081Z" transform="translate(-355.874 -178.053)" fill="#fff"/>
  <path id="Path_1607" data-name="Path 1607" d="M477.181,295.542h49.385V277.8l-49.385-23.3Z" transform="translate(-395.832 -196.905)" fill="#fff"/>
  <path id="Path_1608" data-name="Path 1608" d="M659.255,238.827H502.779L455.038,385.1,579.6,475.319,703.234,383.73Zm-64.4,153.151a11.09,11.09,0,1,1-14.042-10.643V342.98H530.869V287.722l54.9,25.9V302.708a11.044,11.044,0,1,1,5.518.132v13.387l56.7,26.753H586.333v38.237A11.075,11.075,0,0,1,594.857,391.978Z" transform="translate(-455.038 -238.827)" fill="#fff"/>
</svg>
